<svg xmlns="http://www.w3.org/2000/svg" viewBox="0 0 770 220"><defs><style>.cls-1{fill:#a6a6a6;}.cls-2{opacity:0.62;}.cls-3{fill:#7a7a7a;}.cls-4{fill:#f2f2f2;}.cls-5{fill:#fff;}.cls-15,.cls-6{fill:#3ad8fa;}.cls-6,.cls-8{opacity:0.8;}.cls-7{fill:#ccc;}.cls-9{opacity:0.6;}.cls-10{fill:#fef020;}.cls-11{fill:#3f3f3f;}.cls-12{fill:#00ffd2;}.cls-13{fill:#fffe00;}.cls-14{fill:#ececec;stroke:#ccc;stroke-miterlimit:10;stroke-width:2px;}.cls-16{font-size:17.86px;}.cls-16,.cls-21{font-family:ArialRoundedMTBold, Arial Rounded MT Bold;}.cls-17{letter-spacing:-0.01em;}.cls-18{letter-spacing:0em;}.cls-19{fill:#fffff8;}.cls-20{opacity:0.36;}.cls-21{font-size:14px;}.cls-22{letter-spacing:-0.01em;}.cls-23{fill:#4e78c6;}</style></defs><title>steps</title><g id="Layer_3" data-name="Layer 3"><rect class="cls-1" x="338.1" y="9" width="152.7" height="105.15" rx="8" ry="8"/><path class="cls-1" d="M482.8,11a6,6,0,0,1,6,6v89.1a6,6,0,0,1-6,6H346.1a6,6,0,0,1-6-6V17a6,6,0,0,1,6-6H482.8m0-4H346.1a10,10,0,0,0-10,10v89.1a10,10,0,0,0,10,10H482.8a10,10,0,0,0,10-10V17a10,10,0,0,0-10-10Z"/><path class="cls-1" d="M339.6,20.5V17a6.5,6.5,0,0,1,6.5-6.5H482.8a6.5,6.5,0,0,1,6.5,6.5v3.4Z"/><path class="cls-1" d="M482.8,11a6,6,0,0,1,6,6V20H340.1V17a6,6,0,0,1,6-6H482.8m0-1H346.1a7,7,0,0,0-7,7V21H489.8V17a7,7,0,0,0-7-7Z"/><g class="cls-2"><rect class="cls-3" x="336.8" y="21.2" width="155.2" height="16.85"/><path class="cls-4" d="M491.5,21.7V37.6H337.3V21.7H491.5m1-1H336.3V38.6H492.5V20.7Z"/></g><rect class="cls-5" x="346.7" y="24.6" width="135.4" height="10.41" rx="2" ry="2"/><rect class="cls-6" x="349.7" y="26.7" width="89.2" height="5.95" rx="1" ry="1"/><g class="cls-2"><rect class="cls-7" x="371.1" y="43.3" width="87.2" height="6.92"/><path class="cls-5" d="M457.3,44.3v4.9H372.1V44.3h85.2m2-2H370.1v8.9h89.2V42.3Z"/></g><g class="cls-2"><rect class="cls-7" x="348.8" y="56.7" width="131.9" height="6.92"/><path class="cls-5" d="M479.6,57.7v4.9H349.8V57.7H479.6m2-2H347.8v8.9H481.6V55.7Z"/></g><g class="cls-2"><rect class="cls-7" x="348.8" y="70.1" width="131.9" height="6.92"/><path class="cls-5" d="M479.6,71.1V76H349.8V71.1H479.6m2-2H347.8V78H481.6V69.1Z"/></g><g class="cls-2"><rect class="cls-7" x="348.8" y="83.4" width="131.9" height="6.92"/><path class="cls-5" d="M479.6,84.4v4.9H349.8V84.4H479.6m2-2H347.8v8.9H481.6V82.4Z"/></g><g class="cls-2"><rect class="cls-7" x="348.8" y="96.8" width="131.9" height="6.92"/><path class="cls-5" d="M479.6,97.8v4.9H349.8V97.8H479.6m2-2H347.8v8.9H481.6V95.8Z"/></g><g class="cls-8"><rect class="cls-1" x="255.8" y="8.4" width="74.4" height="101.15" rx="6" ry="6"/><g class="cls-2"><rect class="cls-7" x="265.1" y="21.7" width="57.5" height="6.92"/><path class="cls-5" d="M321.6,22.7v4.9H266.1V22.7h55.5m2-2H264.1v8.9h59.5V20.7Z"/><rect class="cls-7" x="265.1" y="36.6" width="57.5" height="6.92"/><path class="cls-5" d="M321.6,37.6v4.9H266.1V37.6h55.5m2-2H264.1v8.9h59.5V35.6Z"/><rect class="cls-7" x="265.1" y="51.5" width="57.5" height="6.92"/><path class="cls-5" d="M321.6,52.5v4.9H266.1V52.5h55.5m2-2H264.1v8.9h59.5V50.5Z"/><rect class="cls-7" x="265.1" y="66.3" width="57.5" height="6.92"/><path class="cls-5" d="M321.6,67.3v4.9H266.1V67.3h55.5m2-2H264.1v8.9h59.5V65.3Z"/><rect class="cls-7" x="265.1" y="81.2" width="57.5" height="6.92"/><path class="cls-5" d="M321.6,82.2v4.9H266.1V82.2h55.5m2-2H264.1v8.9h59.5V80.2Z"/><rect class="cls-7" x="265.1" y="96.1" width="57.5" height="6.92"/><path class="cls-5" d="M321.6,97.1V102H266.1V97.1h55.5m2-2H264.1V104h59.5V95.1Z"/></g><rect class="cls-4" x="245.5" y="15.8" width="41.1" height="19.57"/><path class="cls-3" d="M285.7,16.8V34.3H246.5V16.8h39.1m1-2H245.5a1,1,0,0,0-1,1V35.3a1,1,0,0,0,1,1h41.1a1,1,0,0,0,1-1V15.8a1,1,0,0,0-1-1Z"/><path class="cls-3" d="M255.2,27.1h-2.1v3.3a1.5,1.5,0,0,1-.3,1.1,1.2,1.2,0,0,1-1.7,0,1.5,1.5,0,0,1-.3-1.1V21.5a1.5,1.5,0,0,1,.4-1.1,1.6,1.6,0,0,1,1.1-.3h3l2.1.2a3.1,3.1,0,0,1,1.2.7,3,3,0,0,1,.8,1.1,3.9,3.9,0,0,1,.3,1.5,3.3,3.3,0,0,1-1.1,2.7A5,5,0,0,1,255.2,27.1Zm-.6-5.3h-1.6v3.5h1.6l1.4-.2a1.6,1.6,0,0,0,.8-.6,1.7,1.7,0,0,0,.3-1,1.8,1.8,0,0,0-.5-1.2A3,3,0,0,0,254.6,21.8Z"/><path class="cls-3" d="M263,20H266l2,.2a3.8,3.8,0,0,1,1.5.8,5.9,5.9,0,0,1,1.8,4.7,9.2,9.2,0,0,1-.2,1.9,5.6,5.6,0,0,1-.6,1.6,4.8,4.8,0,0,1-1,1.2l-1,.7-1.2.4H263l-1-.2a.9.9,0,0,1-.4-.5,3.5,3.5,0,0,1-.1-.9V21.5A1.2,1.2,0,0,1,263,20Zm.9,1.9v7.9h2.7l.7-.2.6-.4a4.3,4.3,0,0,0,1.2-3.4,5.1,5.1,0,0,0-.5-2.6,2.3,2.3,0,0,0-1.3-1.1l-1.8-.2Z"/><path class="cls-3" d="M280.4,21.8h-4.6v3h3.9a1.2,1.2,0,0,1,.8.2.8.8,0,0,1,.3.6.8.8,0,0,1-.3.6,1.2,1.2,0,0,1-.8.2h-3.9v3.8a1.5,1.5,0,0,1-.3,1.1,1.2,1.2,0,0,1-1.7,0,1.5,1.5,0,0,1-.3-1.1V21.5a1.9,1.9,0,0,1,.1-.8.9.9,0,0,1,.5-.5h6.3a1.2,1.2,0,0,1,.8.2.8.8,0,0,1,.3.7.9.9,0,0,1-.3.7A1.2,1.2,0,0,1,280.4,21.8Z"/></g><path class="cls-9" d="M447.4,32.8l-11.7-4.3h-.3a1,1,0,0,0-.9,1.3l4.2,11.8a1,1,0,0,0,.9.7h0a1,1,0,0,0,.9-.6l1.6-4,3.3,3.4a1,1,0,1,0,1.4-1.4l-3.4-3.4,3.9-1.6a1,1,0,0,0,0-1.9Z"/></g><g id="Layer_1" data-name="Layer 1"><path class="cls-10" d="M740.3,121.8l-10.5,3.9-10.7,3.8-21.5,7.2q-21.6,7-43.4,13.4t-43.8,12.1q-22,5.7-44.2,10.7c-14.8,3.3-29.6,6.4-44.5,9.2s-29.8,5.3-44.8,7.5c-7.5,1.2-15,2-22.5,3.1l-11.3,1.3-5.6.6-5.7.5-11.3,1.1-11.3.8-5.7.4-5.7.3-11.3.6c-60.5,2.5-121.3-3.1-181.1-14.3-29.9-5.6-59.6-12.7-88.9-20.9q-22-6.2-43.7-13.5c-14.4-4.9-28.8-10-43-15.8C43.8,140,58,145.6,72.3,151s28.8,10.4,43.3,15.1c29.1,9.4,58.6,17.6,88.5,24.2,59.8,13.4,121,21.3,182.7,21l11.5-.2h5.8l5.8-.2,11.5-.4,11.5-.7,5.8-.3,5.8-.4,11.5-.9c7.7-.8,15.3-1.4,23-2.3,15.3-1.6,30.5-3.7,45.8-5.9s30.4-4.9,45.5-7.7,30.2-5.9,45.2-9.2,30-6.9,44.9-10.7,29.8-7.8,44.6-12l22.2-6.6,11.1-3.5,11.2-3.7Z"/><rect class="cls-5" x="14.3" y="32.2" width="184" height="124" rx="8" ry="8"/><path class="cls-11" d="M190.3,34.2a6,6,0,0,1,6,6v108a6,6,0,0,1-6,6H22.3a6,6,0,0,1-6-6V40.2a6,6,0,0,1,6-6h168m0-4H22.3a10,10,0,0,0-10,10v108a10,10,0,0,0,10,10h168a10,10,0,0,0,10-10V40.2a10,10,0,0,0-10-10Z"/><path class="cls-11" d="M196.3,46.2H16.3v-6a6,6,0,0,1,6-6h168a6,6,0,0,1,6,6Z"/><rect class="cls-5" x="17.3" y="46.4" width="178" height="13.96"/><path class="cls-11" d="M194.3,47.4v12H18.3v-12h176m2-2H16.3v16h180v-16Z"/><rect class="cls-12" x="143.1" y="42.4" width="46.2" height="24.08" rx="2" ry="2"/><path d="M187.3,43.4a1,1,0,0,1,1,1V64.4a1,1,0,0,1-1,1H145.1a1,1,0,0,1-1-1V44.4a1,1,0,0,1,1-1h42.2m0-2H145.1a3,3,0,0,0-3,3V64.4a3,3,0,0,0,3,3h42.2a3,3,0,0,0,3-3V44.4a3,3,0,0,0-3-3Z"/><rect class="cls-11" x="1.8" y="13.2" width="82" height="162" rx="7" ry="7"/><path class="cls-5" d="M76.8,14.2a6,6,0,0,1,6,6v148a6,6,0,0,1-6,6H8.8a6,6,0,0,1-6-6V20.2a6,6,0,0,1,6-6h68m0-2H8.8a8,8,0,0,0-8,8v148a8,8,0,0,0,8,8h68a8,8,0,0,0,8-8V20.2a8,8,0,0,0-8-8Z"/><rect class="cls-12" x="28.9" y="22.2" width="46.2" height="24.08" rx="2" ry="2"/><path d="M73.1,23.2a1,1,0,0,1,1,1V44.3a1,1,0,0,1-1,1H30.9a1,1,0,0,1-1-1V24.2a1,1,0,0,1,1-1H73.1m0-2H30.9a3,3,0,0,0-3,3V44.3a3,3,0,0,0,3,3H73.1a3,3,0,0,0,3-3V24.2a3,3,0,0,0-3-3Z"/><rect class="cls-5" x="7.8" y="58.3" width="67.3" height="30.21" rx="7" ry="7"/><path class="cls-11" d="M68.1,59.3a6,6,0,0,1,6,6V81.5a6,6,0,0,1-6,6H14.8a6,6,0,0,1-6-6V65.3a6,6,0,0,1,6-6H68.1m0-2H14.8a8,8,0,0,0-8,8V81.5a8,8,0,0,0,8,8H68.1a8,8,0,0,0,8-8V65.3a8,8,0,0,0-8-8Z"/><rect class="cls-5" x="7.8" y="93.2" width="67.3" height="30.21" rx="7" ry="7"/><path class="cls-11" d="M68.1,94.2a6,6,0,0,1,6,6v16.2a6,6,0,0,1-6,6H14.8a6,6,0,0,1-6-6V100.2a6,6,0,0,1,6-6H68.1m0-2H14.8a8,8,0,0,0-8,8v16.2a8,8,0,0,0,8,8H68.1a8,8,0,0,0,8-8V100.2a8,8,0,0,0-8-8Z"/><rect class="cls-5" x="7.8" y="128.2" width="67.3" height="30.21" rx="7" ry="7"/><path class="cls-11" d="M68.1,129.2a6,6,0,0,1,6,6v16.2a6,6,0,0,1-6,6H14.8a6,6,0,0,1-6-6V135.2a6,6,0,0,1,6-6H68.1m0-2H14.8a8,8,0,0,0-8,8v16.2a8,8,0,0,0,8,8H68.1a8,8,0,0,0,8-8V135.2a8,8,0,0,0-8-8Z"/><rect class="cls-5" x="281.7" y="53.2" width="184" height="124" rx="8" ry="8"/><path class="cls-11" d="M457.7,55.2a6,6,0,0,1,6,6v108a6,6,0,0,1-6,6h-168a6,6,0,0,1-6-6V61.2a6,6,0,0,1,6-6h168m0-4h-168a10,10,0,0,0-10,10v108a10,10,0,0,0,10,10h168a10,10,0,0,0,10-10V61.2a10,10,0,0,0-10-10Z"/><path class="cls-11" d="M463.7,67.2h-180v-6a6,6,0,0,1,6-6h168a6,6,0,0,1,6,6Z"/><rect class="cls-5" x="557.1" y="30.1" width="184" height="124" rx="8" ry="8"/><path class="cls-11" d="M733.1,32.1a6,6,0,0,1,6,6v108a6,6,0,0,1-6,6h-168a6,6,0,0,1-6-6V38.1a6,6,0,0,1,6-6h168m0-4h-168a10,10,0,0,0-10,10v108a10,10,0,0,0,10,10h168a10,10,0,0,0,10-10V38.1a10,10,0,0,0-10-10Z"/><path class="cls-11" d="M739.1,44.1h-180v-6a6,6,0,0,1,6-6h168a6,6,0,0,1,6,6Z"/><rect class="cls-5" x="306.8" y="139.3" width="102" height="14.34" rx="7" ry="7"/><path class="cls-11" d="M401.8,140.3a6,6,0,0,1,6,6v.3a6,6,0,0,1-6,6h-88a6,6,0,0,1-6-6v-.3a6,6,0,0,1,6-6h88m0-2h-88a8,8,0,0,0-8,8v.3a8,8,0,0,0,8,8h88a8,8,0,0,0,8-8v-.3a8,8,0,0,0-8-8Z"/><rect class="cls-5" x="306.8" y="114.8" width="102" height="14.34" rx="7" ry="7"/><path class="cls-11" d="M401.8,115.8a6,6,0,0,1,6,6v.3a6,6,0,0,1-6,6h-88a6,6,0,0,1-6-6v-.3a6,6,0,0,1,6-6h88m0-2h-88a8,8,0,0,0-8,8v.3a8,8,0,0,0,8,8h88a8,8,0,0,0,8-8v-.3a8,8,0,0,0-8-8Z"/><circle class="cls-4" cx="595" cy="38.1" r="3.5"/><path class="cls-11" d="M595,35.1a3,3,0,1,1-3,3,3,3,0,0,1,3-3m0-1a4,4,0,1,0,4,4,4,4,0,0,0-4-4Z"/><circle class="cls-4" cx="568.7" cy="38.1" r="3.5"/><path class="cls-11" d="M568.7,35.1a3,3,0,1,1-3,3,3,3,0,0,1,3-3m0-1a4,4,0,1,0,4,4,4,4,0,0,0-4-4Z"/><circle class="cls-4" cx="581.9" cy="38.1" r="3.5"/><path class="cls-11" d="M581.9,35.1a3,3,0,1,1-3,3,3,3,0,0,1,3-3m0-1a4,4,0,1,0,4,4,4,4,0,0,0-4-4Z"/><rect class="cls-13" x="576.3" y="60.1" width="98" height="10"/><path class="cls-7" d="M673.3,61.1v8h-96v-8h96m2-2h-100v12h100v-12Z"/><rect class="cls-13" x="576.3" y="78.1" width="98" height="10"/><path class="cls-7" d="M673.3,79.1v8h-96v-8h96m2-2h-100v12h100v-12Z"/><rect class="cls-13" x="576.3" y="96.1" width="98" height="10"/><path class="cls-7" d="M673.3,97.1v8h-96v-8h96m2-2h-100v12h100v-12Z"/><rect class="cls-14" x="575.3" y="113.1" width="100" height="12"/><rect class="cls-14" x="575.3" y="132" width="100" height="12"/><rect class="cls-11" x="684.8" y="11.1" width="82" height="162" rx="7" ry="7"/><path class="cls-5" d="M759.8,12.1a6,6,0,0,1,6,6v148a6,6,0,0,1-6,6h-68a6,6,0,0,1-6-6V18.1a6,6,0,0,1,6-6h68m0-2h-68a8,8,0,0,0-8,8v148a8,8,0,0,0,8,8h68a8,8,0,0,0,8-8V18.1a8,8,0,0,0-8-8Z"/><rect class="cls-12" x="690.4" y="142" width="70.9" height="24.08" rx="2" ry="2"/><path d="M759.3,143a1,1,0,0,1,1,1v20.1a1,1,0,0,1-1,1H692.4a1,1,0,0,1-1-1V144a1,1,0,0,1,1-1h66.9m0-2H692.4a3,3,0,0,0-3,3v20.1a3,3,0,0,0,3,3h66.9a3,3,0,0,0,3-3V144a3,3,0,0,0-3-3Z"/><rect class="cls-15" x="691.1" y="17.5" width="70" height="26" rx="2" ry="2"/><path d="M759.1,18.5a1,1,0,0,1,1,1v22a1,1,0,0,1-1,1h-66a1,1,0,0,1-1-1v-22a1,1,0,0,1,1-1h66m0-2h-66a3,3,0,0,0-3,3v22a3,3,0,0,0,3,3h66a3,3,0,0,0,3-3v-22a3,3,0,0,0-3-3Z"/><rect class="cls-5" x="692.1" y="50.8" width="67" height="10"/><path class="cls-7" d="M758.1,51.8v8h-65v-8h65m2-2h-69v12h69v-12Z"/><rect class="cls-5" x="692.1" y="68.8" width="67" height="10"/><path class="cls-7" d="M758.1,69.8v8h-65v-8h65m2-2h-69v12h69v-12Z"/><rect class="cls-5" x="692.1" y="86.8" width="67" height="10"/><path class="cls-7" d="M758.1,87.8v8h-65v-8h65m2-2h-69v12h69v-12Z"/><rect class="cls-5" x="692.1" y="104.8" width="67" height="10"/><path class="cls-7" d="M758.1,105.8v8h-65v-8h65m2-2h-69v12h69v-12Z"/><rect class="cls-5" x="692.1" y="122.8" width="67" height="10"/><path class="cls-7" d="M758.1,123.8v8h-65v-8h65m2-2h-69v12h69v-12Z"/><circle class="cls-4" cx="320.9" cy="61.2" r="3.5"/><path class="cls-11" d="M320.9,58.2a3,3,0,1,1-3,3,3,3,0,0,1,3-3m0-1a4,4,0,1,0,4,4,4,4,0,0,0-4-4Z"/><circle class="cls-4" cx="294.7" cy="61.2" r="3.5"/><path class="cls-11" d="M294.7,58.2a3,3,0,1,1-3,3,3,3,0,0,1,3-3m0-1a4,4,0,1,0,4,4,4,4,0,0,0-4-4Z"/><circle class="cls-4" cx="307.8" cy="61.2" r="3.5"/><path class="cls-11" d="M307.8,58.2a3,3,0,1,1-3,3,3,3,0,0,1,3-3m0-1a4,4,0,1,0,4,4,4,4,0,0,0-4-4Z"/><rect class="cls-14" x="13.3" y="64.5" width="57.4" height="6.73" rx="2" ry="2"/><rect class="cls-14" x="13.3" y="76.3" width="57.4" height="6.73" rx="2" ry="2"/><rect class="cls-5" x="94.3" y="79.2" width="44.3" height="30.21" rx="7" ry="7"/><path class="cls-11" d="M131.7,80.2a6,6,0,0,1,6,6v16.2a6,6,0,0,1-6,6H101.3a6,6,0,0,1-6-6V86.2a6,6,0,0,1,6-6h30.3m0-2H101.3a8,8,0,0,0-8,8v16.2a8,8,0,0,0,8,8h30.3a8,8,0,0,0,8-8V86.2a8,8,0,0,0-8-8Z"/><rect class="cls-14" x="98.8" y="85.1" width="35.5" height="6.73" rx="2" ry="2"/><rect class="cls-14" x="98.8" y="96.9" width="35.5" height="6.73" rx="2" ry="2"/><rect class="cls-5" x="143.5" y="114.6" width="44.3" height="30.21" rx="7" ry="7"/><path class="cls-11" d="M180.8,115.6a6,6,0,0,1,6,6v16.2a6,6,0,0,1-6,6H150.5a6,6,0,0,1-6-6V121.6a6,6,0,0,1,6-6h30.3m0-2H150.5a8,8,0,0,0-8,8v16.2a8,8,0,0,0,8,8h30.3a8,8,0,0,0,8-8V121.6a8,8,0,0,0-8-8Z"/><rect class="cls-14" x="148.4" y="120.5" width="35.5" height="6.73" rx="2" ry="2"/><rect class="cls-14" x="148.4" y="132.2" width="35.5" height="6.73" rx="2" ry="2"/><rect class="cls-5" x="143.5" y="79.2" width="44.3" height="30.21" rx="7" ry="7"/><path class="cls-11" d="M180.8,80.2a6,6,0,0,1,6,6v16.2a6,6,0,0,1-6,6H150.5a6,6,0,0,1-6-6V86.2a6,6,0,0,1,6-6h30.3m0-2H150.5a8,8,0,0,0-8,8v16.2a8,8,0,0,0,8,8h30.3a8,8,0,0,0,8-8V86.2a8,8,0,0,0-8-8Z"/><rect class="cls-14" x="148.4" y="85.1" width="35.5" height="6.73" rx="2" ry="2"/><rect class="cls-14" x="148.4" y="96.9" width="35.5" height="6.73" rx="2" ry="2"/><rect class="cls-14" x="13.3" y="99.1" width="57.4" height="6.73" rx="2" ry="2"/><rect class="cls-14" x="13.3" y="110.9" width="57.4" height="6.73" rx="2" ry="2"/><path class="cls-14" d="M68.7,140.4H15.3a2,2,0,0,1-2-2v-2.7a2,2,0,0,1,2-2H29.9c1.1,0,40.8.9,40.8,2v2.7A2,2,0,0,1,68.7,140.4Z"/><rect class="cls-14" x="13.3" y="145.4" width="57.4" height="6.73" rx="2" ry="2"/><text class="cls-16" transform="translate(35.3 40.2)">Add</text><text class="cls-16" transform="translate(148.4 60.3)">Add</text><text class="cls-16" transform="translate(310.8 97.2)">Sense -<tspan class="cls-17" x="64" y="0">V</tspan><tspan class="cls-18" x="76.1" y="0">ia</tspan></text><rect class="cls-19" x="417.3" y="123.2" width="34" height="22" rx="3" ry="3"/><path class="cls-11" d="M448.3,124.2a2,2,0,0,1,2,2v16a2,2,0,0,1-2,2h-28a2,2,0,0,1-2-2v-16a2,2,0,0,1,2-2h28m0-2h-28a4,4,0,0,0-4,4v16a4,4,0,0,0,4,4h28a4,4,0,0,0,4-4v-16a4,4,0,0,0-4-4Z"/><rect class="cls-15" x="420.3" y="126.2" width="28" height="16" rx="1" ry="1"/><path class="cls-5" d="M431.1,135.2v1.6a1.7,1.7,0,0,1-.1.5l-.2.4-.4.3-1.5.6-1.6.2a5.1,5.1,0,0,1-1.8-.3,3.8,3.8,0,0,1-1.4-.9,3.9,3.9,0,0,1-.9-1.4,5.3,5.3,0,0,1-.3-1.8,5.4,5.4,0,0,1,.3-1.8,3.8,3.8,0,0,1,.9-1.4,3.9,3.9,0,0,1,1.4-.9,5.4,5.4,0,0,1,1.9-.3l1.5.2,1.1.6.6.7a1.5,1.5,0,0,1,.2.7.7.7,0,0,1-.2.6l-.6.2h-.4l-.3-.2-.5-.8-.6-.4-1-.2-1.1.2-.8.6a2.7,2.7,0,0,0-.5,1,4.3,4.3,0,0,0-.2,1.3,3.5,3.5,0,0,0,.7,2.3,2.4,2.4,0,0,0,1.9.8l1.1-.2,1.1-.5v-1.4h-2.1a.5.5,0,0,1-.2-.5.6.6,0,0,1,.2-.5l.6-.2h2.6l.4.3A1.2,1.2,0,0,1,431.1,135.2Z"/><path class="cls-5" d="M436.6,130a4.6,4.6,0,0,1,2.3.5,3.5,3.5,0,0,1,1.5,1.5,5.3,5.3,0,0,1,.5,2.3,5.7,5.7,0,0,1-.3,1.8,3.9,3.9,0,0,1-.8,1.4,3.5,3.5,0,0,1-1.3.9,5.2,5.2,0,0,1-3.6,0,3.6,3.6,0,0,1-1.3-.9,3.9,3.9,0,0,1-.8-1.4,5.7,5.7,0,0,1-.3-1.8,5.6,5.6,0,0,1,.3-1.8,3.9,3.9,0,0,1,.8-1.4,3.6,3.6,0,0,1,1.3-.9A4.7,4.7,0,0,1,436.6,130Zm2.5,4.4a4,4,0,0,0-.3-1.6,2.3,2.3,0,0,0-.9-1,2.4,2.4,0,0,0-1.3-.4l-1,.2-.8.6a2.7,2.7,0,0,0-.5,1,4.3,4.3,0,0,0-.2,1.3,4.4,4.4,0,0,0,.2,1.3,2.7,2.7,0,0,0,.5,1l.8.6,1,.2a2.4,2.4,0,0,0,1.2-.3,2.3,2.3,0,0,0,.9-1A4,4,0,0,0,439,134.4Z"/><path class="cls-5" d="M442.7,135l-.2-2.8q-.1-.8-.1-1.2a1.1,1.1,0,0,1,.3-.8.9.9,0,0,1,.7-.3.7.7,0,0,1,.7.3,2.4,2.4,0,0,1,.2,1,7.7,7.7,0,0,1,0,.8l-.3,2.9a2.3,2.3,0,0,1-.2.8.5.5,0,0,1-.4.3.4.4,0,0,1-.4-.3A2.7,2.7,0,0,1,442.7,135Zm.7,3.9-.6-.2a.8.8,0,0,1-.3-.6.9.9,0,0,1,.9-.9l.6.3a.8.8,0,0,1,.3.6.8.8,0,0,1-.3.6Z"/><rect class="cls-11" x="308.7" y="141" width="22.1" height="11.03" rx="5" ry="5"/><g class="cls-20"><path class="cls-5" d="M314.1,147.1H313v1.7a.8.8,0,0,1-.2.5l-.4.2-.4-.2a.8.8,0,0,1-.2-.5v-4.6a.7.7,0,0,1,.2-.6l.6-.2h2.6l.6.3.4.6a2,2,0,0,1,.1.8,1.7,1.7,0,0,1-.6,1.4A2.5,2.5,0,0,1,314.1,147.1Zm-.3-2.7H313v1.8h1.5l.4-.3a.9.9,0,0,0,.1-.5.9.9,0,0,0-.2-.6A1.5,1.5,0,0,0,313.8,144.4Z"/><path class="cls-5" d="M318.1,143.5h2.6l.8.4a3,3,0,0,1,.9,2.4,4.7,4.7,0,0,1-.1,1,2.9,2.9,0,0,1-.3.8l-.5.6-.5.3-.6.2h-2.8l-.2-.3a1.8,1.8,0,0,1-.1-.5v-4.3a.8.8,0,0,1,.2-.6Zm.5.9v4h1.7l.3-.2a2.2,2.2,0,0,0,.6-1.8,2.6,2.6,0,0,0-.3-1.3,1.2,1.2,0,0,0-.7-.6h-1.7Z"/><path class="cls-5" d="M327,144.4h-2.4v1.5H327a.4.4,0,0,1,.1.3.4.4,0,0,1-.1.3h-2.4v2a.8.8,0,0,1-.2.6l-.4.2-.4-.2a.8.8,0,0,1-.2-.5v-4.6a1,1,0,0,1,.1-.4l.2-.2h3.7a.4.4,0,0,1,.1.3.4.4,0,0,1-.1.3Z"/></g><text class="cls-21" transform="translate(695 35.1)">m<tspan class="cls-22" x="12.4" y="0">a</tspan><tspan x="20.5" y="0">pA</tspan></text><text class="cls-21" transform="translate(696.8 158.6)">Add to A</text><polygon points="751.9 34.5 756.5 26.5 747.3 26.5 751.9 34.5"/><polygon class="cls-10" points="201.3 72 289.1 58.9 201.3 45.7 201.3 72"/><polygon class="cls-10" points="467.7 148.8 557.7 135.7 467.7 122.5 467.7 148.8"/></g><g id="Layer_5" data-name="Layer 5"><circle class="cls-5" cx="580.4" cy="102.7" r="10"/><path class="cls-23" d="M580.4,111.7a9,9,0,1,1,9-9A9,9,0,0,1,580.4,111.7Z"/><path class="cls-5" d="M580.4,94.7a8,8,0,1,1-8,8,8,8,0,0,1,8-8m-2.9,8.7h2.2v2.2a.7.7,0,0,0,1.5,0v-2.2h2.2a.7.7,0,1,0,0-1.5h-2.2V99.8a.7.7,0,0,0-1.5,0V102h-2.2a.7.7,0,1,0,0,1.5m2.9-10.7a10,10,0,1,0,10,10,10,10,0,0,0-10-10Z"/><path class="cls-9" d="M599.5,109.7l-15.7-5.8h-.5a1.3,1.3,0,0,0-1.3,1.8l5.7,15.9a1.3,1.3,0,0,0,1.2.9h0a1.3,1.3,0,0,0,1.2-.8l2.1-5.3,4.5,4.5a1.3,1.3,0,1,0,1.9-1.9l-4.5-4.6,5.3-2.2a1.3,1.3,0,0,0,0-2.5Z"/><path d="M768.6,163.7l-15.7-5.8h-.5a1.3,1.3,0,0,0-1.3,1.8l5.7,15.9a1.3,1.3,0,0,0,1.2.9h0a1.3,1.3,0,0,0,1.2-.8l2.1-5.3,4.5,4.5a1.3,1.3,0,1,0,1.9-1.9l-4.5-4.6,5.3-2.2a1.3,1.3,0,0,0,0-2.5Z"/><path d="M456.3,141l-15.7-5.8h-.5a1.3,1.3,0,0,0-1.3,1.8l5.7,15.9a1.3,1.3,0,0,0,1.2.9h0a1.3,1.3,0,0,0,1.2-.8l2.1-5.3,4.5,4.5a1.3,1.3,0,1,0,1.9-1.9l-4.5-4.6,5.3-2.2a1.3,1.3,0,0,0,0-2.5Z"/><rect class="cls-6" x="313.2" y="119.5" width="89.2" height="5.95" rx="1" ry="1"/></g></svg>